{
  "accessors": [
    {
      "bufferView": 2,
      "componentType": 5126,
      "count": 4048,
      "max": [
        5.032010078430176,
        11.561599731445313,
        21.801145553588867
      ],
      "min": [
        -5.198345184326172,
        -12.239102363586426,
        -1.118575096130371
      ],
      "type": "VEC3"
    },
    {
      "bufferView": 2,
      "byteOffset": 48576,
      "componentType": 5126,
      "count": 4048,
      "max": [
        1.0,
        0.9992316961288452,
        0.9997578263282776
      ],
      "min": [
        -1.0,
        -0.9992316961288452,
        -0.9999772310256958
      ],
      "type": "VEC3"
    },
    {
      "bufferView": 3,
      "componentType": 5126,
      "count": 4048,
      "max": [
        0.9994010329246521,
        1.0,
        0.9999571442604065,
        1.0
      ],
      "min": [
        -0.9999326467514038,
        -0.9999542236328125,
        -0.9998231530189514,
        -1.0
      ],
      "type": "VEC4"
    },
    {
      "bufferView": 1,
      "componentType": 5126,
      "count": 4048,
      "max": [
        0.988183856010437,
        0.991155207157135
      ],
      "min": [
        0.011454972438514233,
        0.014598389156162739
      ],
      "type": "VEC2"
    },
    {
      "bufferView": 0,
      "componentType": 5125,
      "count": 14916,
      "type": "SCALAR"
    },
    {
      "bufferView": 2,
      "byteOffset": 97152,
      "componentType": 5126,
      "count": 338,
      "max": [
        16.297344207763672,
        17.60654067993164,
        9.760650634765625
      ],
      "min": [
        -4.8959574699401855,
        15.97260856628418,
        3.373075485229492
      ],
      "type": "VEC3"
    },
    {
      "bufferView": 2,
      "byteOffset": 101208,
      "componentType": 5126,
      "count": 338,
      "max": [
        0.999978244304657,
        0.9994553327560425,
        0.9999741315841675
      ],
      "min": [
        -0.9853103160858154,
        -0.9997456669807434,
        -0.9999716877937317
      ],
      "type": "VEC3"
    },
    {
      "bufferView": 3,
      "byteOffset": 64768,
      "componentType": 5126,
      "count": 338,
      "max": [
        0.7960800528526306,
        0.999972939491272,
        0.9999730587005615,
        1.0
      ],
      "min": [
        -0.9387597441673279,
        -0.9999940991401672,
        -0.4311787188053131,
        -1.0
      ],
      "type": "VEC4"
    },
    {
      "bufferView": 1,
      "byteOffset": 32384,
      "componentType": 5126,
      "count": 338,
      "max": [
        0.9574981331825256,
        0.7596095204353333
      ],
      "min": [
        0.7831904292106628,
        0.2737843990325928
      ],
      "type": "VEC2"
    },
    {
      "bufferView": 0,
      "byteOffset": 59664,
      "componentType": 5125,
      "count": 600,
      "type": "SCALAR"
    }
  ],
  "asset": {
    "extras": {
      "author": "EagleHunter2 (https://sketchfab.com/eaglehunter2)",
      "license": "CC-BY-4.0 (http://creativecommons.org/licenses/by/4.0/)",
      "source": "https://sketchfab.com/3d-models/barbarian-king-character-4471ade162c246a599f8b75403d40714",
      "title": "Barbarian King Character"
    },
    "generator": "Sketchfab-12.68.0",
    "version": "2.0"
  },
  "bufferViews": [
    {
      "buffer": 0,
      "byteLength": 62064,
      "name": "floatBufferViews",
      "target": 34963
    },
    {
      "buffer": 0,
      "byteLength": 35088,
      "byteOffset": 62064,
      "byteStride": 8,
      "name": "floatBufferViews",
      "target": 34962
    },
    {
      "buffer": 0,
      "byteLength": 105264,
      "byteOffset": 97152,
      "byteStride": 12,
      "name": "floatBufferViews",
      "target": 34962
    },
    {
      "buffer": 0,
      "byteLength": 70176,
      "byteOffset": 202416,
      "byteStride": 16,
      "name": "floatBufferViews",
      "target": 34962
    }
  ],
  "buffers": [
    {
      "byteLength": 272592,
      "uri": "king.bin"
    }
  ],
  "images": [
    {
      "uri": "textures/02_-_Default_baseColor.png"
    },
    {
      "uri": "textures/02_-_Default_normal.png"
    }
  ],
  "materials": [
    {
      "doubleSided": true,
      "name": "02_-_Default",
      "normalTexture": {
        "index": 1
      },
      "pbrMetallicRoughness": {
        "baseColorTexture": {
          "index": 0
        },
        "metallicFactor": 0.0,
        "roughnessFactor": 0.9300466752706374
      }
    }
  ],
  "meshes": [
    {
      "name": "bk_low_body_01_02 - Default_0",
      "primitives": [
        {
          "attributes": {
            "NORMAL": 1,
            "POSITION": 0,
            "TANGENT": 2,
            "TEXCOORD_0": 3
          },
          "indices": 4,
          "material": 0,
          "mode": 4
        }
      ]
    },
    {
      "name": "bk_low_sword_01_02 - Default_0",
      "primitives": [
        {
          "attributes": {
            "NORMAL": 6,
            "POSITION": 5,
            "TANGENT": 7,
            "TEXCOORD_0": 8
          },
          "indices": 9,
          "material": 0,
          "mode": 4
        }
      ]
    }
  ],
  "nodes": [
    {
      "children": [
        1
      ],
      "matrix": [
        1.0,
        0.0,
        0.0,
        0.0,
        0.0,
        2.220446049250313e-16,
        -1.0,
        0.0,
        0.0,
        1.0,
        2.220446049250313e-16,
        0.0,
        0.0,
        0.0,
        0.0,
        1.0
      ],
      "name": "Sketchfab_model"
    },
    {
      "children": [
        2
      ],
      "matrix": [
        1.0,
        0.0,
        0.0,
        0.0,
        0.0,
        0.0,
        1.0,
        0.0,
        0.0,
        -1.0,
        0.0,
        0.0,
        0.0,
        0.0,
        0.0,
        1.0
      ],
      "name": "barbking_default.fbx"
    },
    {
      "children": [
        3,
        5
      ],
      "name": "RootNode"
    },
    {
      "children": [
        4
      ],
      "matrix": [
        4.945562510382384e-07,
        1.4099832200981251e-16,
        2.53999996185298,
        0.0,
        2.539999961852977,
        -1.1102692909280351e-07,
        -4.9455625174323e-07,
        0.0,
        1.1102692881080687e-07,
        2.5399999618530256,
        -2.2559731521570002e-14,
        0.0,
        0.0,
        3.0811054706573486,
        -1.3467939652400673e-07,
        1.0
      ],
      "name": "bk_low_body_01"
    },
    {
      "mesh": 0,
      "name": "bk_low_body_01_02 - Default_0"
    },
    {
      "children": [
        6
      ],
      "matrix": [
        4.945562510382384e-07,
        1.4099832200981251e-16,
        2.53999996185298,
        0.0,
        2.539999961852977,
        -1.1102692909280351e-07,
        -4.9455625174323e-07,
        0.0,
        1.1102692881080687e-07,
        2.5399999618530256,
        -2.2559731521570002e-14,
        0.0,
        0.0,
        3.0811054706573486,
        -1.3467939652400673e-07,
        1.0
      ],
      "name": "bk_low_sword_01"
    },
    {
      "mesh": 1,
      "name": "bk_low_sword_01_02 - Default_0"
    }
  ],
  "samplers": [
    {
      "magFilter": 9729,
      "minFilter": 9987,
      "wrapS": 10497,
      "wrapT": 10497
    }
  ],
  "scene": 0,
  "scenes": [
    {
      "name": "Sketchfab_Scene",
      "nodes": [
        0
      ]
    }
  ],
  "textures": [
    {
      "sampler": 0,
      "source": 0
    },
    {
      "sampler": 0,
      "source": 1
    }
  ]
}
