{
  "accessors": [
    {
      "bufferView": 2,
      "componentType": 5126,
      "count": 2601,
      "max": [
        0.7932817935943604,
        1.4899094104766846,
        0.7932820320129395
      ],
      "min": [
        -0.7932822108268738,
        -0.03537521883845329,
        -0.7932822704315186
      ],
      "type": "VEC3"
    },
    {
      "bufferView": 2,
      "byteOffset": 31212,
      "componentType": 5126,
      "count": 2601,
      "max": [
        0.9999266862869263,
        1.0,
        0.9999266862869263
      ],
      "min": [
        -0.9999266862869263,
        -0.9924059510231018,
        -0.9999266862869263
      ],
      "type": "VEC3"
    },
    {
      "bufferView": 3,
      "componentType": 5126,
      "count": 2601,
      "max": [
        1.0,
        0.20127299427986145,
        1.0,
        1.0
      ],
      "min": [
        -1.0,
        -0.2012728601694107,
        -1.0,
        -1.0
      ],
      "type": "VEC4"
    },
    {
      "bufferView": 1,
      "componentType": 5126,
      "count": 2601,
      "max": [
        1.0000001192092896,
        0.9060631990432739
      ],
      "min": [
        0.0,
        0.06714260578155518
      ],
      "type": "VEC2"
    },
    {
      "bufferView": 1,
      "byteOffset": 20808,
      "componentType": 5126,
      "count": 2601,
      "max": [
        1.0000001192092896,
        0.9060631990432739
      ],
      "min": [
        0.0,
        0.06714260578155518
      ],
      "type": "VEC2"
    },
    {
      "bufferView": 0,
      "componentType": 5125,
      "count": 12864,
      "type": "SCALAR"
    },
    {
      "bufferView": 2,
      "byteOffset": 62424,
      "componentType": 5126,
      "count": 2208,
      "max": [
        0.9808783531188965,
        0.8102654218673706,
        0.9696595668792725
      ],
      "min": [
        -0.9706786274909973,
        -0.05724174529314041,
        -1.1899611949920654
      ],
      "type": "VEC3"
    },
    {
      "bufferView": 2,
      "byteOffset": 88920,
      "componentType": 5126,
      "count": 2208,
      "max": [
        0.891169011592865,
        0.9999995827674866,
        0.850898265838623
      ],
      "min": [
        -0.8675640225410461,
        0.054872576147317886,
        -0.9949472546577454
      ],
      "type": "VEC3"
    },
    {
      "bufferView": 1,
      "byteOffset": 41616,
      "componentType": 5126,
      "count": 2208,
      "max": [
        1.000000238418579,
        0.3750000596046448
      ],
      "min": [
        0.0,
        0.0
      ],
      "type": "VEC2"
    },
    {
      "bufferView": 0,
      "byteOffset": 51456,
      "componentType": 5125,
      "count": 3168,
      "type": "SCALAR"
    }
  ],
  "asset": {
    "extras": {
      "author": "rbkavin (https://sketchfab.com/rbkavin)",
      "license": "CC-BY-4.0 (http://creativecommons.org/licenses/by/4.0/)",
      "source": "https://sketchfab.com/3d-models/pongal-pot-1a05dbf4ac3043c2818b8eb08619c6ee",
      "title": "Pongal Pot"
    },
    "generator": "Sketchfab-12.67.0",
    "version": "2.0"
  },
  "bufferViews": [
    {
      "buffer": 0,
      "byteLength": 64128,
      "name": "floatBufferViews",
      "target": 34963
    },
    {
      "buffer": 0,
      "byteLength": 59280,
      "byteOffset": 64128,
      "byteStride": 8,
      "name": "floatBufferViews",
      "target": 34962
    },
    {
      "buffer": 0,
      "byteLength": 115416,
      "byteOffset": 123408,
      "byteStride": 12,
      "name": "floatBufferViews",
      "target": 34962
    },
    {
      "buffer": 0,
      "byteLength": 41616,
      "byteOffset": 238824,
      "byteStride": 16,
      "name": "floatBufferViews",
      "target": 34962
    }
  ],
  "buffers": [
    {
      "byteLength": 280440,
      "uri": "pongalPot.bin"
    }
  ],
  "images": [
    {
      "uri": "textures/material_baseColor.png"
    },
    {
      "uri": "textures/material_normal.png"
    }
  ],
  "materials": [
    {
      "doubleSided": true,
      "name": "material",
      "normalTexture": {
        "index": 1
      },
      "pbrMetallicRoughness": {
        "baseColorTexture": {
          "index": 0
        },
        "metallicFactor": 0.0
      }
    },
    {
      "doubleSided": true,
      "name": "form"
    }
  ],
  "meshes": [
    {
      "name": "Object_0",
      "primitives": [
        {
          "attributes": {
            "NORMAL": 1,
            "POSITION": 0,
            "TANGENT": 2,
            "TEXCOORD_0": 3,
            "TEXCOORD_1": 4
          },
          "indices": 5,
          "material": 0,
          "mode": 4
        }
      ]
    },
    {
      "name": "mesh_1",
      "primitives": [
        {
          "attributes": {
            "NORMAL": 7,
            "POSITION": 6,
            "TEXCOORD_0": 8
          },
          "indices": 9,
          "material": 1,
          "mode": 4
        }
      ]
    }
  ],
  "nodes": [
    {
      "children": [
        1
      ],
      "matrix": [
        1.0,
        0.0,
        0.0,
        0.0,
        0.0,
        2.220446049250313e-16,
        -1.0,
        0.0,
        0.0,
        1.0,
        2.220446049250313e-16,
        0.0,
        0.0,
        0.0,
        0.0,
        1.0
      ],
      "name": "Sketchfab_model"
    },
    {
      "children": [
        2
      ],
      "name": "root"
    },
    {
      "children": [
        3,
        5
      ],
      "matrix": [
        1.0,
        0.0,
        0.0,
        0.0,
        0.0,
        2.220446049250313e-16,
        1.0,
        0.0,
        0.0,
        -1.0,
        2.220446049250313e-16,
        0.0,
        0.0,
        0.0,
        0.0,
        1.0
      ],
      "name": "GLTF_SceneRootNode"
    },
    {
      "children": [
        4
      ],
      "name": "Sphere_0"
    },
    {
      "mesh": 0,
      "name": "Object_4"
    },
    {
      "children": [
        6
      ],
      "matrix": [
        0.4234377145767212,
        0.0,
        0.0,
        0.0,
        0.0,
        0.4234377145767212,
        0.0,
        0.0,
        0.0,
        0.0,
        0.4234377145767212,
        0.0,
        0.0,
        1.3258378505706787,
        0.0,
        1.0
      ],
      "name": "Sphere.001_1"
    },
    {
      "mesh": 1,
      "name": "mesh_1"
    }
  ],
  "samplers": [
    {
      "magFilter": 9729,
      "minFilter": 9987,
      "wrapS": 10497,
      "wrapT": 10497
    }
  ],
  "scene": 0,
  "scenes": [
    {
      "name": "Sketchfab_Scene",
      "nodes": [
        0
      ]
    }
  ],
  "textures": [
    {
      "sampler": 0,
      "source": 0
    },
    {
      "sampler": 0,
      "source": 1
    }
  ]
}
